<svg xmlns="http://www.w3.org/2000/svg" viewBox="0 0 500 500"><g id="freepik--character-2--inject-4"><rect x="232.85" y="144.69" width="73.01" height="56.19" transform="translate(-9.33 15.5) rotate(-3.24)" style="fill:#407BFF"></rect><rect x="232.85" y="144.69" width="73.01" height="56.19" transform="translate(-9.33 15.5) rotate(-3.24)" style="opacity:0.30000000000000004"></rect><rect x="206.36" y="146.19" width="73.01" height="56.19" transform="translate(-9.46 14.01) rotate(-3.24)" style="fill:#407BFF"></rect><rect x="206.36" y="146.19" width="73.01" height="56.19" transform="translate(-9.46 14.01) rotate(-3.24)" style="fill:#fff;opacity:0.30000000000000004"></rect><rect x="270.36" y="150.22" width="15.56" height="5.25" transform="matrix(1, -0.06, 0.06, 1, -8.19, 15.96)" style="opacity:0.30000000000000004"></rect><rect x="209.61" y="154.62" width="15.56" height="8.5" transform="translate(-8.63 12.54) rotate(-3.24)" style="fill:#fff;opacity:0.5"></rect><rect x="206.67" y="176.99" width="23.88" height="6.63" transform="translate(-9.84 12.64) rotate(-3.24)" style="opacity:0.30000000000000004"></rect><path d="M325.28,96.43l-4,5.1A8.66,8.66,0,0,0,325,103Z" style="fill:#a02724"></path><polygon points="394.32 409.21 382.7 408.55 380.34 398.64 379.05 393.21 378.57 391.21 387.51 390.6 388.15 390.55 390.05 396.3 394.32 409.21" style="fill:#b55b52"></polygon><path d="M327.5,410.84c.22.79-10.79-.62-10.79-.62l-.39-9.25-.3-7.14,0-.39h.09l11.18,1.11s0,3,0,6.41C327.31,405.34,327.37,410.41,327.5,410.84Z" style="fill:#b55b52"></path><path d="M350.82,123.25s-15.7,4.25-14.54,1.17a15.81,15.81,0,0,0,.69-5.77c0-1.28-.16-2.19-.16-2.19-5.68.33-9.5-3.78-11.2-8.84-2.19-6.49-1.39-13.74,1.27-19.9.21-.5.81-2.62,1.34-2.88L334.38,82s6,3.93,9.12,6.37,5.63,13.78,5.63,22.6S350.82,123.25,350.82,123.25Z" style="fill:#b55b52"></path><path d="M324.81,94.56a1.36,1.36,0,0,0-1,1.25,1.33,1.33,0,0,0,.66,1.36Z" style="fill:#263238"></path><path d="M324.81,89.48a3.34,3.34,0,0,1,1.85.51" style="fill:none;stroke:#263238;stroke-linecap:round;stroke-linejoin:round"></path><path d="M330.27,105.71s4.56,7.12,11.82,8.75,9.55-.89,10.52-5A22.25,22.25,0,0,1,358,99.09c2.51-2.59,1-9.62-2.19-15.4,0,0,3.42-2.87-2.09-5.63s-7.54,1.83-12.32-.85S343,73.64,338.49,82s-7,2.28-7.67,6S326.66,98.18,330.27,105.71Z" style="fill:#263238"></path><path d="M330.82,89.73c-.45-.15-14.91-5.38-15.05-7.75s11.21,1.94,11.64,2.11h0l2.93,4.63Z" style="fill:#407BFF"></path><path d="M360,95.46c-.14.43-1,3.28-1.37,3.28l-1.21-.07q-1.69-.14-3.36-.39c-1.23-.19-2.44-.43-3.63-.71h-.05c-1.21-.29-2.4-.61-3.56-1a76.49,76.49,0,0,1-8.37-3.07h0c-1.54-.67-2.9-1.32-4-1.88-2.25-1.12-3.59-1.91-3.59-1.91l-.2-.33-.82-1.29-1.75-2.77-.6-.93,0-.07a.41.41,0,0,1,0-.26c.06-1.06,2.23-4,2.62-4.5a18.86,18.86,0,0,1,6-5.22c3.22-1.78,6.85-1,10.27-.4A16.19,16.19,0,0,1,349.67,75l0,0,.67.29h0l.13.06c.12.07.25.12.37.18l.22.11a23.91,23.91,0,0,1,6.83,4.81C362.39,85.5,360.56,93.83,360,95.46Z" style="fill:#407BFF"></path><path d="M355.11,128.62s-.72-5-2.29-6-17.17-.85-19.6.86-2,7.3-2,7.3Z" style="fill:#407BFF"></path><path d="M327.42,97.81s2.66-3.44,5.51-1.31.59,7.18-2.76,8.6c0,0-4.33,1.41-4.89-3S327.42,97.81,327.42,97.81Z" style="fill:#b55b52"></path><path d="M316.75,217.53s-5.95,56.93-7.61,83.11,4.44,93.13,4.44,93.13h14.47s1.66-66.51,4.16-86.46,10.8-47,10.8-47,5,42.81,10,60.27,21.24,70.8,21.24,70.8l16.66-3.2s-20-68.43-20-89.63.19-64-4.79-81Z" style="fill:#407BFF"></path><path d="M390.88,388.2l-16.65,3.21S358,338.07,353,320.61c-2.75-9.6-5.49-26.89-7.4-40.5C344,269,343,260.34,343,260.34s-8.31,27-10.81,47-4.15,86.46-4.15,86.46H313.58s-6.1-66.94-4.44-93.12,7.61-83.12,7.61-83.12h49.32c5,17,4.8,59.85,4.8,81S390.88,388.2,390.88,388.2Z" style="opacity:0.30000000000000004"></path><path d="M345.59,280.11C344,269,343,260.34,343,260.34L344,244.8Z" style="opacity:0.30000000000000004"></path><polygon points="312.01 390.99 329.35 390.99 328.5 398.13 312.69 398.13 312.01 390.99" style="fill:#263238"></polygon><polygon points="372.14 389.95 390.89 382.98 393.26 393.12 374.96 398.13 372.14 389.95" style="fill:#263238"></polygon><polygon points="387.51 390.6 379.05 393.21 380.34 398.64 390.05 396.3 387.51 390.6" style="opacity:0.2"></polygon><path d="M327.29,401h-11l-.3-7.14.07-.38,11.18,1.11S327.27,397.55,327.29,401Z" style="opacity:0.2"></path><path d="M311,414.39c.07.19-6.92-3.88-5-5.78S311,414.39,311,414.39Z" style="fill:none;stroke:#407BFF;stroke-miterlimit:10"></path><path d="M312,414.1c-.05.2-3.9-6.91-1.28-7.54S312,414.1,312,414.1Z" style="fill:none;stroke:#407BFF;stroke-miterlimit:10"></path><path d="M381.09,410.07s-2.29-7.37-4.51-6.16S381.09,410.07,381.09,410.07Z" style="fill:none;stroke:#407BFF;stroke-miterlimit:10"></path><path d="M380.47,410.71S375.3,405,373.79,407,380.47,410.71,380.47,410.71Z" style="fill:none;stroke:#407BFF;stroke-miterlimit:10"></path><path d="M394.75,408.53H382.33s-7.18,4.32-10.33,4.72-5,.59-4.91,2.85,2,2.46,8.45,2.36,19.25.69,20.64-.59S396.69,414.18,394.75,408.53Z" style="fill:#263238"></path><path d="M327.5,410.07l-12,.09s-7.18,4.32-10.32,4.72-5,.59-4.92,2.85,2,2.46,8.46,2.36,17.85.83,19.24-.45S328.58,416.26,327.5,410.07Z" style="fill:#263238"></path><path d="M327.41,84.09c.31,1.59.63,2.81,3.26,5.58-3.34-1.24-14.78-5.66-14.9-7.69S324.53,83,327.41,84.09Z" style="opacity:0.30000000000000004"></path><path d="M327.41,84.34a.41.41,0,0,1,0-.26h0s0,.11,0,.32Z" style="opacity:0.30000000000000004"></path><path d="M330.82,89.73l-.31-.12a.67.67,0,0,1,.06-.12Z" style="opacity:0.30000000000000004"></path><path d="M360,95.46c-.14.43-1,3.28-1.37,3.28l-1.21-.07q-1.69-.14-3.36-.39c-1.23-.19-2.44-.43-3.63-.71h-.05c-1.21-.29-2.4-.61-3.56-1a76.49,76.49,0,0,1-8.37-3.07h0c-1.54-.67-2.9-1.32-4-1.88-2.25-1.12-3.59-1.91-3.59-1.91l-.2-.33-.82-1.29-1.75-2.77-.6-.93,0-.07a.41.41,0,0,1,0-.26c.06-1.06,2.23-4,2.62-4.5a18.86,18.86,0,0,1,6-5.22c3.22-1.78,6.85-1,10.27-.4A16.19,16.19,0,0,1,349.67,75l0,0,.67.29h0l.13.06c.12.07.25.12.37.18l.22.11a23.91,23.91,0,0,1,6.83,4.81C362.39,85.5,360.56,93.83,360,95.46Z" style="fill:#407BFF"></path><path d="M340.33,115.5a44.23,44.23,0,0,1-3.36,3.15c0-1.28-.16-2.19-.16-2.19A15.88,15.88,0,0,0,340.33,115.5Z" style="opacity:0.2"></path><path d="M316.75,218.09V166.87l-9.35-3.81s1.79-27.33,15.1-31.64,37-6.12,43.52,0c4.12,3.89,4.67,10.13,4.82,15.48.32,10.9-2.53,21.56-3.16,32.4-.5,8.82-.8,17.64-1,26.47,0,.68-.26,12.32-.28,12.32Z" style="fill:#263238"></path><path d="M321.87,168.62s-6.92,22.86-13.76,24.29-30.2-11.32-30.2-11.32l-10.43,0L266,172.42s9.71-3.6,16.18.71c0,0,15.11,6.59,20.14,8.51L309.61,164Z" style="fill:#b55b52"></path></g></svg>